HIERARCHY
ROOT Hips
{
	OFFSET 0.00000 0.00000 0.00000
	CHANNELS 6 Xposition Yposition Zposition Zrotation Yrotation Xrotation 
	JOINT LHipJoint
	{
		OFFSET 0 0 0
		CHANNELS 3 Zrotation Yrotation Xrotation
		JOINT LeftHip
		{
			OFFSET 1.55766 -1.60504 1.11378
			CHANNELS 3 Zrotation Yrotation Xrotation
			JOINT LeftKnee
			{
				OFFSET 2.29047 -6.29302 0.00000
				CHANNELS 3 Zrotation Yrotation Xrotation
				JOINT LeftAnkle
				{
					OFFSET 2.52265 -6.93093 0.00000
					CHANNELS 3 Zrotation Yrotation Xrotation
					JOINT LeftToe
					{
						OFFSET 0.17633 -0.48446 2.02656
						CHANNELS 3 Zrotation Yrotation Xrotation
						End Site
						{
							OFFSET 0.00000 -0.00000 1.04989
						}
					}
				}
			}
		}
	}
	JOINT RHipJoint
	{
		OFFSET 0 0 0
		CHANNELS 3 Zrotation Yrotation Xrotation
		JOINT RightHip
		{
			OFFSET -1.48599 -1.60504 1.11378
			CHANNELS 3 Zrotation Yrotation Xrotation
			JOINT RightKnee
			{
				OFFSET -2.27280 -6.24448 0.00000
				CHANNELS 3 Zrotation Yrotation Xrotation
				JOINT RightAnkle
				{
					OFFSET -2.50834 -6.89161 0.00000
					CHANNELS 3 Zrotation Yrotation Xrotation
					JOINT RightToe
					{
						OFFSET -0.26967 -0.74090 2.08741
						CHANNELS 3 Zrotation Yrotation Xrotation
						End Site
						{
							OFFSET -0.00000 -0.00000 1.10614
						}
					}
				}
			}
		}
	}
	JOINT lowerback
	{
		OFFSET 0 0 0
		CHANNELS 3 Zrotation Yrotation Xrotation
		JOINT Chest
		{
			OFFSET 0.06481 2.02437 -0.08472
			CHANNELS 3 Zrotation Yrotation Xrotation
			JOINT Chest2
			{
				OFFSET 0.00015 1.96711 0.18069
				CHANNELS 3 Zrotation Yrotation Xrotation
				JOINT lowerneck
				{
					OFFSET 0 0 0
					CHANNELS 3 Zrotation Yrotation Xrotation
					JOINT Neck
					{
						OFFSET -0.29961 1.68293 -0.13041
						CHANNELS 3 Zrotation Yrotation Xrotation
						JOINT Head
						{
							OFFSET 0.59697 1.61501 -0.14669
							CHANNELS 3 Zrotation Yrotation Xrotation
							End Site
							{
								OFFSET 0.22973 1.74906 -0.10148
							}
						}
					}
				}
				JOINT LeftCollar
				{
					OFFSET 0 0 0
					CHANNELS 3 Zrotation Yrotation Xrotation
					JOINT LeftShoulder
					{
						OFFSET 3.37968 1.02893 0.31147
CHANNELS 3 Zrotation Xrotation Yrotation
						JOINT LeftElbow
						{
OFFSET 0 -5.198070 -0.000000
CHANNELS 3 Zrotation Xrotation Yrotation
							JOINT LeftWrist
							{
OFFSET 0 -3.093700 -0.000000
CHANNELS 3 Zrotation Xrotation Yrotation
								JOINT lhand
								{
									OFFSET 0 0 0
CHANNELS 3 Zrotation Xrotation Yrotation
									JOINT LFingers
									{
OFFSET 0 -0.672630 -0.000000
CHANNELS 3 Zrotation Xrotation Yrotation
										End Site
										{
OFFSET 0 -0.542290 -0.000000
										}
									}
								}
								JOINT LThumb
								{
OFFSET 0 0.000000 0.000000
CHANNELS 3 Zrotation Xrotation Yrotation
									End Site
									{
OFFSET 0 -0.550570 0.550570
									}
								}
							}
						}
					}
				}
				JOINT RightCollar
				{
					OFFSET 0 0 0
					CHANNELS 3 Zrotation Yrotation Xrotation
					JOINT RightShoulder
					{
						OFFSET -3.38254 0.96355 -0.16120
CHANNELS 3 Zrotation Xrotation Yrotation
						JOINT RightElbow
						{
OFFSET 0 -5.452220 -0.000000
CHANNELS 3 Zrotation Xrotation Yrotation
							JOINT RightWrist
							{
OFFSET 0 -3.012840 -0.000000
CHANNELS 3 Zrotation Xrotation Yrotation
								JOINT rhand
								{
									OFFSET 0 0 0
CHANNELS 3 Zrotation Xrotation Yrotation
									JOINT RFingers
									{
OFFSET 0 -0.622300 -0.000000
CHANNELS 3 Zrotation Xrotation Yrotation
										End Site
										{
OFFSET 0 -0.501710 -0.000000
										}
									}
								}
								JOINT RThumb
								{
OFFSET 0 0.000000 0.000000
CHANNELS 3 Zrotation Xrotation Yrotation
									End Site
									{
OFFSET 0 -0.509370 0.509370
									}
								}
							}
						}
					}
				}
			}
		}
	}
}
MOTION
Frames: 4
Frame Time: 0.008333333333333333
7.132000 15.951600 28.757400 -175.711000 -12.519400 -165.545000 0.000000 0.000000 0.000000 -14.515300 -1.094600 -28.927000 2.995000 10.686900 31.231100 0.996900 -12.680900 -18.678700 1.066800 -6.566300 -18.436600 0.000000 0.000000 0.000000 26.493100 -3.728400 -24.827300 -1.921700 -8.701000 24.864400 -0.431000 19.155300 -16.946300 -0.399900 4.060200 -11.246000 6.466400 6.112900 -14.338900 -1.986700 6.872900 -3.934100 -4.437600 3.278600 4.829000 -25.773100 0.755800 1.150900 39.215500 -5.434700 11.909800 20.039000 -3.779200 4.762700 -0.000000 -0.000000 0.000000 57.602400 22.039700 -109.527800 148.391700 -42.232700 107.523300 59.331700 -99.673300 -12.804800 0.000000 0.000000 0.000000 -7.125000 0.000000 0.000000 33.162700 50.759300 -5.201100 -0.000000 -0.000000 0.000000 -48.243900 19.754200 99.189300 -148.598200 -42.065000 -107.661800 -19.396700 -58.885400 69.752600 0.000000 0.000000 0.000000 7.125000 0.000000 -0.000000 -166.247400 11.208600 11.151400
7.132611 15.948018 28.753728 -175.622270 -12.363726 -165.611619 0.000000 0.000000 0.000000 -14.416188 -1.087635 -28.830859 3.000493 10.695790 31.260766 1.019590 -12.475232 -18.804845 1.072679 -6.583638 -18.487717 0.000000 0.000000 0.000000 26.572279 -3.734890 -24.783343 -1.923877 -8.705751 24.879049 -0.416349 19.317521 -16.925890 -0.397495 4.048076 -11.211834 6.557036 6.157506 -14.365470 -1.954192 6.917810 -3.890834 -4.439106 3.305480 4.901513 -25.765715 0.758452 1.138713 39.208268 -5.427257 11.910374 20.032152 -3.773822 4.761812 0.000000 0.000000 0.000000 57.541970 22.060790 -109.445671 148.382591 -42.240008 107.517094 59.421287 -99.408667 -12.944356 0.000000 0.000000 0.000000 -7.125000 0.000000 0.000000 33.393743 51.000516 -5.459099 0.000000 0.000000 0.000000 -48.283712 19.701989 99.198776 -148.607263 -42.057729 -107.667876 -19.504556 -58.842194 69.617519 0.000000 0.000000 0.000000 7.125000 0.000000 0.000000 -166.305870 11.091662 11.134950
7.137462 15.947116 28.755000 -175.606260 -12.302163 -165.556301 0.000000 0.000000 0.000000 -14.374715 -1.121374 -28.875162 3.000908 10.696514 31.263146 1.030586 -12.356468 -18.862777 1.091954 -6.640667 -18.655130 0.000000 0.000000 0.000000 26.593818 -3.627355 -24.842321 -1.928842 -8.716374 24.912009 -0.413866 19.323485 -16.910758 -0.388954 4.004674 -11.089873 6.590309 6.190008 -14.332402 -1.994928 6.956281 -3.950170 -4.498257 3.319560 4.834536 -25.711002 0.752962 1.157432 39.234578 -5.461662 11.911782 20.033712 -3.795756 4.771390 0.000000 0.000000 0.000000 57.620596 22.061840 -109.481770 148.389882 -42.234116 107.521988 59.496994 -99.333947 -12.977585 0.000000 0.000000 0.000000 -7.125000 0.000000 0.000000 33.520237 51.076757 -5.551959 0.000000 0.000000 0.000000 -48.215803 19.773356 99.216564 -148.598236 -42.064972 -107.661824 -19.521158 -58.829591 69.703263 0.000000 0.000000 0.000000 7.125000 0.000000 0.000000 -166.287002 11.173913 11.127326
7.142025 15.946309 28.755588 -175.593180 -12.225169 -165.497022 0.000000 0.000000 0.000000 -14.345333 -1.118442 -28.925071 2.998833 10.693154 31.251880 1.039180 -12.269050 -18.909639 1.103647 -6.675149 -18.756478 0.000000 0.000000 0.000000 26.613809 -3.547861 -24.920290 -1.935398 -8.730281 24.955218 -0.407781 19.370708 -16.891570 -0.385242 3.986016 -11.037407 6.609093 6.206193 -14.346324 -2.007159 6.971817 -3.975994 -4.518478 3.324849 4.820413 -25.726549 0.741498 1.141367 39.265474 -5.488873 11.911154 20.058428 -3.812533 4.787448 0.000000 0.000000 0.000000 57.618641 22.072929 -109.446925 148.392546 -42.231945 107.523864 59.587603 -99.187916 -13.045829 0.000000 0.000000 0.000000 -7.125000 0.000000 0.000000 33.696347 51.211150 -5.707616 0.000000 0.000000 0.000000 -48.198786 19.767889 99.215324 -148.592008 -42.070113 -107.657672 -19.468663 -58.910950 69.834053 0.000000 0.000000 0.000000 7.125000 0.000000 0.000000 -166.242455 11.291845 11.131349
